<svg class="logo-ad-svg" xmlns="http://www.w3.org/2000/svg" viewBox="-4.8 -24.24 149.44 151.68" aria-hidden="true" focusable="false">
  <g class="logo-ad-base" fill="none" stroke="#ccc">
    <path fill="none" d="M2.80 63.28C3.04 63.36 3.28 63.36 3.60 63.36C5.04 63.36 6.96 62.64 8.32 62.16C16.32 59.36 24.48 57.04 32.72 55.20C33.04 55.12 33.44 54.96 33.76 54.96C33.92 54.96 34.08 55.04 34.32 55.12C34.16 55.84 33.76 56.32 33.44 56.80C30.24 62.08 18.96 81.04 17.20 86C17.04 86.48 16.96 86.88 16.96 87.28C16.96 89.20 18.56 90.40 20.16 90.40C20.96 90.40 21.68 90.16 22.32 89.60C24.08 87.92 25.52 86 26.16 83.60C26.32 83.12 26.32 82.72 26.32 82.48C26.32 81.28 25.44 81.44 25.44 80.56C25.44 80.32 25.52 80 25.76 79.44C28.56 73.20 35.92 60.48 39.44 54.96C40.08 53.92 40.88 53.52 42 53.28C46.40 52.40 74.72 47.44 79.12 47.44L79.44 47.44L79.44 47.60C79.44 48 79.28 48.32 79.12 48.64C67.68 72.96 61.44 85.28 50.16 109.68L45.04 118.32C44.80 118.72 44.32 119.68 44.32 120.40C44.32 120.80 44.48 121.12 44.80 121.28C45.04 121.36 45.20 121.44 45.44 121.44C46.16 121.44 46.40 120.64 46.80 119.84C47.92 117.36 49.20 115.28 50.40 112.88C62.24 87.20 69.12 74.08 81.28 48.56C81.76 47.52 83.12 46.80 84.24 46.72C90.72 46.08 97.20 45.36 103.76 45.28C104 45.28 104.32 45.36 104.64 45.36C105.12 45.36 105.44 45.20 105.44 44.64C105.36 44.08 104.96 44 104.48 44L102.24 44C96.80 44 91.44 44.40 86.08 44.80C85.68 44.88 85.20 44.96 84.72 44.96C84.48 44.96 84.16 44.88 83.84 44.80C89.68 31.60 103.92 4.48 103.92-10L103.92-11.04C103.76-14.56 102.08-18.24 98.40-18.24C98-18.24 97.60-18.16 97.20-18.08C89.60-16.80 75.44-1.36 71.12 3.76C58.96 18.16 47.60 33.20 38 49.44C37.44 50.40 36.80 50.88 35.68 51.12C25.28 52.88 15.12 55.68 5.20 59.20C4.80 59.36 4.48 59.44 4.16 59.44C3.92 59.44 3.68 59.36 3.44 59.28C3.20 59.20 3.04 59.12 2.80 59.12C1.84 59.12 1.20 60.16 1.20 61.12C1.20 62 1.68 62.88 2.80 63.28Z"/>
    <path fill="none" d="M97.04 69.12C101.68 66.40 107.12 58.24 111.04 53.76C111.36 54.08 111.52 54.32 111.52 54.56C111.52 54.96 111.28 55.20 111.12 55.52C107.12 64.56 102.96 73.60 100.56 83.20C100.08 85.12 99.92 86.56 99.92 87.60C99.92 89.60 100.56 90.32 101.12 90.32C101.44 90.32 101.76 90 101.76 89.60L101.76 89.36C101.60 88.88 101.60 88.32 101.60 87.84C101.60 86.80 101.84 85.84 102.08 84.80C102.72 82.72 103.28 80.56 104.08 78.56C112.24 57.60 122.64 37.92 136.48 20.16C137.20 19.28 137.76 18.32 138.40 17.36C138.56 17.04 138.64 16.72 138.64 16.48C138.64 15.76 138.08 15.36 137.20 15.36C136.88 15.36 136.64 15.36 136.32 15.44C135.84 15.60 135.44 16.08 135.12 16.40C128.56 23.76 124.56 30.64 119.52 39.04C117.36 42.48 114.80 45.68 112.32 49.12C110.72 47.60 109.28 46.88 107.84 46.88C106.80 46.88 105.60 47.36 104.32 48.16C99.36 51.20 94.96 57.84 92.80 63.20C92.32 64.40 92.08 65.52 92.08 66.40C92.08 68.56 93.28 69.76 94.88 69.76C95.60 69.76 96.32 69.52 97.04 69.12Z"/>
  </g>
  <g class="logo-ad-ink" fill="none" stroke="#1a1a1a" stroke-linecap="round" stroke-linejoin="round" vector-effect="non-scaling-stroke">
    <path class="logo-ad-stroke-a logo-ad-stroke-a-1" fill="none" pathLength="1" d="M2.80 63.28C3.04 63.36 3.28 63.36 3.60 63.36C5.04 63.36 6.96 62.64 8.32 62.16C16.32 59.36 24.48 57.04 32.72 55.20C33.04 55.12 33.44 54.96 33.76 54.96C33.92 54.96 34.08 55.04 34.32 55.12C34.16 55.84 33.76 56.32 33.44 56.80C30.24 62.08 18.96 81.04 17.20 86C17.04 86.48 16.96 86.88 16.96 87.28C16.96 89.20 18.56 90.40 20.16 90.40C20.96 90.40 21.68 90.16 22.32 89.60C24.08 87.92 25.52 86 26.16 83.60C26.32 83.12 26.32 82.72 26.32 82.48C26.32 81.28 25.44 81.44 25.44 80.56C25.44 80.32 25.52 80 25.76 79.44C28.56 73.20 35.92 60.48 39.44 54.96C40.08 53.92 40.88 53.52 42 53.28C46.40 52.40 74.72 47.44 79.12 47.44L79.44 47.44L79.44 47.60C79.44 48 79.28 48.32 79.12 48.64C67.68 72.96 61.44 85.28 50.16 109.68L45.04 118.32C44.80 118.72 44.32 119.68 44.32 120.40C44.32 120.80 44.48 121.12 44.80 121.28C45.04 121.36 45.20 121.44 45.44 121.44C46.16 121.44 46.40 120.64 46.80 119.84C47.92 117.36 49.20 115.28 50.40 112.88C62.24 87.20 69.12 74.08 81.28 48.56C81.76 47.52 83.12 46.80 84.24 46.72C90.72 46.08 97.20 45.36 103.76 45.28C104 45.28 104.32 45.36 104.64 45.36C105.12 45.36 105.44 45.20 105.44 44.64C105.36 44.08 104.96 44 104.48 44L102.24 44C96.80 44 91.44 44.40 86.08 44.80C85.68 44.88 85.20 44.96 84.72 44.96C84.48 44.96 84.16 44.88 83.84 44.80C89.68 31.60 103.92 4.48 103.92-10L103.92-11.04C103.76-14.56 102.08-18.24 98.40-18.24C98-18.24 97.60-18.16 97.20-18.08C89.60-16.80 75.44-1.36 71.12 3.76C58.96 18.16 47.60 33.20 38 49.44C37.44 50.40 36.80 50.88 35.68 51.12C25.28 52.88 15.12 55.68 5.20 59.20C4.80 59.36 4.48 59.44 4.16 59.44C3.92 59.44 3.68 59.36 3.44 59.28C3.20 59.20 3.04 59.12 2.80 59.12C1.84 59.12 1.20 60.16 1.20 61.12C1.20 62 1.68 62.88 2.80 63.28Z"/>
    <path class="logo-ad-stroke-d" fill="none" pathLength="1" d="M97.04 69.12C101.68 66.40 107.12 58.24 111.04 53.76C111.36 54.08 111.52 54.32 111.52 54.56C111.52 54.96 111.28 55.20 111.12 55.52C107.12 64.56 102.96 73.60 100.56 83.20C100.08 85.12 99.92 86.56 99.92 87.60C99.92 89.60 100.56 90.32 101.12 90.32C101.44 90.32 101.76 90 101.76 89.60L101.76 89.36C101.60 88.88 101.60 88.32 101.60 87.84C101.60 86.80 101.84 85.84 102.08 84.80C102.72 82.72 103.28 80.56 104.08 78.56C112.24 57.60 122.64 37.92 136.48 20.16C137.20 19.28 137.76 18.32 138.40 17.36C138.56 17.04 138.64 16.72 138.64 16.48C138.64 15.76 138.08 15.36 137.20 15.36C136.88 15.36 136.64 15.36 136.32 15.44C135.84 15.60 135.44 16.08 135.12 16.40C128.56 23.76 124.56 30.64 119.52 39.04C117.36 42.48 114.80 45.68 112.32 49.12C110.72 47.60 109.28 46.88 107.84 46.88C106.80 46.88 105.60 47.36 104.32 48.16C99.36 51.20 94.96 57.84 92.80 63.20C92.32 64.40 92.08 65.52 92.08 66.40C92.08 68.56 93.28 69.76 94.88 69.76C95.60 69.76 96.32 69.52 97.04 69.12Z"/>
  </g>
</svg>